<svg xmlns="http://www.w3.org/2000/svg" viewBox="0 0 512 512" preserveAspectRatio="xMidYMid meet" shape-rendering="geometricPrecision"><path fill="#0299aa" fill-rule="evenodd" d="M172.84,7.50 L173.50,7.04 L174.50,7.42 L252.50,98.20 L255.50,102.52 L257.50,106.19 L259.53,111.00 L260.92,116.00 L261.75,121.50 L261.70,129.00 L260.66,135.00 L259.09,140.00 L221.50,228.60 L220.61,230.50 L220.00,230.91 L218.90,230.50 L141.00,139.84 L138.00,135.60 L135.99,132.00 L133.92,127.00 L132.79,123.00 L131.76,117.00 L131.74,109.50 L132.80,103.00 L133.78,99.50 L172.84,7.50Z M213.59,239.50 L215.50,239.39 L216.32,240.00 L216.37,240.50 L200.50,277.84 L199.50,278.97 L132.50,283.17 L128.50,283.64 L124.50,284.50 L120.00,286.19 L115.02,289.00 L111.36,292.00 L107.00,297.36 L104.00,303.11 L81.00,358.00 L80.12,361.00 L80.50,361.46 L82.50,361.53 L153.00,356.99 L165.50,356.25 L166.42,356.50 L166.62,357.50 L166.26,358.50 L150.48,395.50 L149.00,396.12 L142.50,396.70 L87.50,399.92 L62.00,401.71 L51.50,402.13 L46.00,402.71 L35.50,403.12 L30.00,403.72 L21.50,404.12 L20.50,404.01 L20.00,403.57 L19.98,403.00 L72.93,277.00 L76.00,271.60 L79.00,267.39 L83.00,262.70 L87.00,259.00 L93.83,254.00 L101.00,250.18 L107.00,247.91 L116.00,245.80 L131.50,244.55 L213.59,239.50Z"></path><path fill="#171d70" fill-rule="evenodd" d="M483.96,95.00 L491.50,94.65 L492.38,95.00 L492.42,95.50 L438.50,224.27 L434.50,233.14 L431.50,238.42 L428.60,242.50 L425.30,246.50 L420.50,251.21 L415.09,255.50 L410.46,258.50 L404.50,261.59 L399.50,263.54 L391.50,265.79 L384.00,266.98 L280.00,273.94 L278.43,273.50 L278.40,272.50 L279.00,270.91 L293.32,237.00 L294.31,235.00 L295.00,234.51 L375.50,229.31 L380.50,228.25 L385.50,226.42 L390.58,223.50 L394.50,220.31 L397.50,217.09 L399.50,214.35 L402.60,208.50 L431.87,138.50 L432.11,137.50 L431.87,137.00 L429.50,136.75 L335.50,142.78 L330.50,143.82 L325.00,145.89 L321.20,148.00 L316.19,152.00 L312.00,156.86 L310.35,159.50 L308.14,164.00 L226.50,355.32 L223.59,361.50 L220.50,366.80 L216.49,372.50 L209.50,379.99 L203.85,384.50 L199.00,387.55 L192.50,390.55 L185.50,392.60 L179.50,393.65 L170.00,394.70 L168.50,394.80 L167.79,394.50 L167.82,393.50 L171.81,384.00 L274.00,141.62 L277.00,135.99 L280.00,131.43 L284.38,126.00 L288.00,122.31 L291.86,119.00 L296.04,116.00 L301.00,112.96 L305.00,110.99 L313.50,107.87 L322.50,105.91 L335.50,104.80 L483.96,95.00Z M275.15,281.50 L276.00,281.36 L276.50,281.63 L354.61,372.00 L357.50,376.10 L360.65,382.00 L362.61,387.50 L363.52,391.50 L364.21,399.00 L363.93,403.50 L362.78,410.00 L361.65,413.50 L323.77,503.50 L322.50,505.23 L322.00,505.15 L320.48,503.50 L244.00,414.97 L241.00,410.92 L238.00,405.62 L235.83,400.00 L234.82,396.00 L234.05,391.00 L234.08,383.50 L234.80,378.50 L236.00,374.06 L272.00,288.34 L275.15,281.50Z"></path></svg>